PathFileType	4	(X/Y/Z)	C:\Users\dbl\Desktop\20210112(1)\20210112\bx_y_0_901.trc
DataRate	CameraRate	NumFrames	NumMarkers	Units	OrigDataRate	OrigDataStartFrame	OrigNumFrames
50.00	50.00	       4	43	mm	50.00	1	       457
Frame#	Time	Top.Head			R.Acromium			L.Acromium			Sternum			R.ASIS			L.ASIS			V.Sacral			R.Thigh.Upper			R.Thigh.Front			R.Thigh.Rear			R.Knee.Lat			R.Knee.Med			R.Shank.Upper			R.Shank.Front			R.Shank.Rear			R.Ankle.Lat			R.Midfoot.Lat			R.Toe.Lat			R.Toe.Tip			R.Toe.Med			R.Ankle.Med			R.Midfoot.Sup			R.Heel			L.Thigh.Upper			L.Thigh.Front			L.Thigh.Rear			L.Knee.Lat			L.Knee.Med			L.Shank.Upper			L.Shank.Front			L.Shank.Rear			L.Ankle.Lat			L.Midfoot.Lat			L.Toe.Lat			L.Toe.Tip			L.Toe.Med			L.Ankle.Med			L.Midfoot.Sup			L.Heel			origin1 front left			origin2 front right			origin 3 back right			origin 4 back leftt			
		X1	Y1	Z1	X2	Y2	Z2	X3	Y3	Z3	X4	Y4	Z4	X5	Y5	Z5	X6	Y6	Z6	X7	Y7	Z7	X8	Y8	Z8	X9	Y9	Z9	X10	Y10	Z10	X11	Y11	Z11	X12	Y12	Z12	X13	Y13	Z13	X14	Y14	Z14	X15	Y15	Z15	X16	Y16	Z16	X17	Y17	Z17	X18	Y18	Z18	X19	Y19	Z19	X20	Y20	Z20	X21	Y21	Z21	X22	Y22	Z22	X23	Y23	Z23	X24	Y24	Z24	X25	Y25	Z25	X26	Y26	Z26	X27	Y27	Z27	X28	Y28	Z28	X29	Y29	Z29	X30	Y30	Z30	X31	Y31	Z31	X32	Y32	Z32	X33	Y33	Z33	X34	Y34	Z34	X35	Y35	Z35	X36	Y36	Z36	X37	Y37	Z37	X38	Y38	Z38	X39	Y39	Z39	X40	Y40	Z40	X41	Y41	Z41	X42	Y42	Z42	X43	Y43	Z43	

1	0.000	-674.54468	133.45737	1851.13269	-687.39032	-65.62411	1547.84143	-732.44983	294.70514	1527.63928	-621.52728	114.63006	1435.02100	-594.36023	1.23884	1048.10999	-590.41028	224.21538	1069.82922	-795.27472	98.25813	1058.26636	-656.46136	-64.59843	856.02997	-588.24817	0.74852	800.48438	-698.21106	-46.50173	716.19470	-708.51495	-25.24688	612.79077	-694.45001	83.32554	571.57068	-719.47552	-22.26246	567.02325	-670.93054	22.38286	518.98364	-765.47595	-32.61697	487.76703	-766.48120	-4.26052	207.81265	-663.40161	-66.30142	163.74039	-622.48987	-77.19748	159.32918	-559.73370	-40.14186	164.63623	-603.19440	20.35422	165.63225	-716.60138	79.26321	215.57410	-674.36780	57.02934	156.03343	-794.57166	56.41177	175.14581	-646.76202	284.80008	876.97571	-586.67114	220.90297	813.88507	-696.68475	274.79944	744.15710	-730.78516	251.66243	638.46393	-692.71863	146.26152	571.53796	-734.08069	247.24368	575.03949	-679.04761	208.24625	531.99939	-773.96820	255.89166	502.03714	-771.49658	221.80823	205.21503	-667.66357	299.14450	159.89316	-630.42853	307.47803	162.63387	-561.71759	262.78061	166.33339	-594.48499	222.66698	173.38101	-711.34735	152.13945	216.08649	-675.00861	171.57059	156.91200	-796.07452	171.63783	183.87675	-528.20660	304.21338	146.40298	-517.72174	-72.61513	142.64165	-875.85522	-78.73365	141.22168	-882.61060	296.06824	144.54037	
2	0.020	-674.58398	133.41180	1851.17041	-687.39612	-65.69332	1547.85229	-732.42853	294.45480	1527.37976	-621.52118	114.55524	1434.94580	-594.45392	1.27358	1048.13013	-590.36505	224.24879	1069.85767	-795.32904	98.29745	1058.27502	-656.32562	-64.66496	856.06506	-588.21326	0.66207	800.48126	-698.20532	-46.45846	716.16229	-708.52118	-25.29208	612.78821	-694.54187	83.07627	571.41620	-719.55170	-22.23975	566.99017	-670.91650	22.38559	519.07550	-765.50116	-32.60464	487.79745	-766.46210	-4.24933	207.79002	-663.38477	-66.31221	163.88907	-622.47028	-77.26284	159.32368	-559.78113	-40.12399	164.55516	-603.17218	20.38527	165.52116	-716.64197	79.32944	215.59581	-674.38306	57.04078	156.04848	-794.55383	56.37037	175.09990	-646.72913	284.84180	876.98969	-586.68958	220.91397	813.88824	-696.66846	274.82870	744.16388	-730.77881	251.66071	638.42920	-692.77014	146.26892	571.42487	-734.12695	247.33749	574.96387	-679.03113	208.25101	532.03424	-773.89398	255.89478	501.87051	-771.48657	221.79401	205.30614	-667.65533	299.16916	159.78745	-630.44159	307.49954	162.56830	-561.73010	262.78076	166.29843	-594.56598	222.73642	173.40271	-711.33441	152.09393	216.13794	-675.04980	171.59035	156.89619	-796.16705	171.67816	183.99199	-528.21948	304.32593	146.40057	-517.76001	-72.67619	142.68742	-875.90210	-78.72850	141.31708	-882.61566	296.02316	144.50134	
3	0.040	-674.61084	133.38422	1851.19653	-687.42560	-65.72617	1547.84790	-732.42798	294.28958	1527.20703	-621.54846	114.47012	1434.87537	-594.52972	1.29261	1048.12842	-590.34320	224.27930	1069.88281	-795.38501	98.34142	1058.28406	-656.23438	-64.70283	856.09467	-588.20953	0.61827	800.47351	-698.19196	-46.44482	716.16193	-708.53003	-25.34613	612.78906	-694.61395	82.93474	571.32159	-719.58813	-22.22720	566.94043	-670.90979	22.38396	519.13239	-765.50464	-32.60605	487.81778	-766.44385	-4.25018	207.77756	-663.38092	-66.30380	163.97427	-622.44800	-77.31140	159.32289	-559.81628	-40.11498	164.49603	-603.17200	20.40964	165.47006	-716.65204	79.36521	215.61963	-674.39807	57.05197	156.06317	-794.52094	56.33176	175.07176	-646.68060	284.86685	877.00671	-586.70953	220.92827	813.89069	-696.65991	274.85071	744.16675	-730.79095	251.66791	638.42438	-692.82269	146.27698	571.36096	-734.14685	247.41414	574.93030	-679.01459	208.24986	532.04730	-773.81854	255.85901	501.71802	-771.50134	221.78474	205.37923	-667.65924	299.18170	159.72449	-630.44452	307.50531	162.52086	-561.72980	262.77432	166.27020	-594.60992	222.76866	173.41808	-711.33728	152.05775	216.17068	-675.06586	171.59714	156.91055	-796.22821	171.69803	184.05112	-528.22437	304.39816	146.40012	-517.76422	-72.72692	142.71982	-875.93964	-78.72652	141.35608	-882.62012	295.98825	144.47218	
4	0.060	-674.62769	133.38158	1851.20996	-687.47870	-65.72397	1547.83337	-732.45245	294.21793	1527.13220	-621.60583	114.38602	1434.81921	-594.57623	1.28592	1048.11267	-590.34406	224.30263	1069.89893	-795.43341	98.36894	1058.29468	-656.19678	-64.70934	856.11597	-588.22266	0.62420	800.46649	-698.18225	-46.44841	716.16754	-708.53845	-25.38560	612.79517	-694.64880	82.91878	571.30328	-719.58923	-22.23797	566.88928	-670.90839	22.38345	519.14832	-765.50067	-32.61121	487.82785	-766.42303	-4.26360	207.77391	-663.39307	-66.27852	164.01100	-622.42920	-77.34188	159.33078	-559.84015	-40.11536	164.45758	-603.18964	20.42464	165.47342	-716.63702	79.37392	215.64345	-674.40448	57.05666	156.06929	-794.48627	56.31145	175.06630	-646.63074	284.86987	877.02032	-586.73541	220.94807	813.88733	-696.67188	274.85522	744.16223	-730.81543	251.67456	638.44336	-692.88904	146.28436	571.36890	-734.13446	247.44438	574.92413	-678.99628	208.23410	532.04443	-773.74042	255.77699	501.60199	-771.51483	221.77242	205.41199	-667.66992	299.17877	159.71429	-630.44403	307.49075	162.49666	-561.73688	262.76230	166.25435	-594.60645	222.76515	173.41711	-711.34479	152.03502	216.18860	-675.05994	171.58992	156.93784	-796.25830	171.71507	184.06662	-528.21936	304.40448	146.39879	-517.73566	-72.75475	142.71802	-875.95923	-78.72265	141.34373	-882.63330	295.96640	144.45262	
